<svg id="visual" viewBox="0 0 900 600" width="900" height="600" xmlns="http://www.w3.org/2000/svg" xmlns:xlink="http://www.w3.org/1999/xlink" version="1.1"><path d="M0 444L9.3 445.7C18.7 447.3 37.3 450.7 56.2 462.3C75 474 94 494 112.8 495.5C131.7 497 150.3 480 169 472.7C187.7 465.3 206.3 467.7 225 466.7C243.7 465.7 262.3 461.3 281.2 462.8C300 464.3 319 471.7 337.8 479.7C356.7 487.7 375.3 496.3 394 499C412.7 501.7 431.3 498.3 450 495.8C468.7 493.3 487.3 491.7 506.2 485.3C525 479 544 468 562.8 463.2C581.7 458.3 600.3 459.7 619 467.8C637.7 476 656.3 491 675 497.5C693.7 504 712.3 502 731.2 498.2C750 494.3 769 488.7 787.8 488.7C806.7 488.7 825.3 494.3 844 491.3C862.7 488.3 881.3 476.7 890.7 470.8L900 465L900 601L890.7 601C881.3 601 862.7 601 844 601C825.3 601 806.7 601 787.8 601C769 601 750 601 731.2 601C712.3 601 693.7 601 675 601C656.3 601 637.7 601 619 601C600.3 601 581.7 601 562.8 601C544 601 525 601 506.2 601C487.3 601 468.7 601 450 601C431.3 601 412.7 601 394 601C375.3 601 356.7 601 337.8 601C319 601 300 601 281.2 601C262.3 601 243.7 601 225 601C206.3 601 187.7 601 169 601C150.3 601 131.7 601 112.8 601C94 601 75 601 56.2 601C37.3 601 18.7 601 9.3 601L0 601Z" fill="#ffffff" stroke-linecap="round" stroke-linejoin="miter"></path></svg>